<svg xmlns="http://www.w3.org/2000/svg" width="73.796" height="24.608" viewBox="0 0 73.796 24.608">
  <g id="Mada_Logo" transform="translate(0 0)">
    <rect id="Rectangle_162" data-name="Rectangle 162" width="31.216" height="10.399" transform="translate(0 14.19)" fill="#84b740"/>
    <rect id="Rectangle_163" data-name="Rectangle 163" width="31.216" height="10.409" transform="translate(0 0)" fill="#259bd6"/>
    <path id="Path_149" data-name="Path 149" d="M621.248,142.877l-.139.028a4.552,4.552,0,0,1-1.01.13c-.816,0-1.779-.417-1.779-2.382,0-1.01.167-2.354,1.687-2.354h.009a4.565,4.565,0,0,1,1.112.213l.12.037v4.328Zm.25-9.8-.25.046v3.633l-.222-.065-.065-.019a5.117,5.117,0,0,0-1.381-.241c-3.04,0-3.68,2.3-3.68,4.226,0,2.642,1.483,4.162,4.069,4.162a8.247,8.247,0,0,0,2.716-.38,1.2,1.2,0,0,0,1.02-1.316V132.7c-.723.13-1.474.26-2.206.38" transform="translate(-558.815 -120.401)" fill="#27292d"/>
    <path id="Path_150" data-name="Path 150" d="M719.837,179.053l-.13.037-.463.12a4.83,4.83,0,0,1-1.121.176c-.714,0-1.14-.352-1.14-.955,0-.389.176-1.047,1.344-1.047h1.511Zm-1.066-6.553a10.256,10.256,0,0,0-3.1.538l-.779.232.26,1.761.76-.25a8.935,8.935,0,0,1,2.53-.426c.334,0,1.353,0,1.353,1.1v.482h-1.418c-2.586,0-3.782.825-3.782,2.6,0,1.511,1.1,2.419,2.957,2.419a9.559,9.559,0,0,0,2.058-.278l.037-.009.037.009.232.037c.723.13,1.474.26,2.206.4v-5.784c0-1.872-1.131-2.827-3.355-2.827" transform="translate(-648.367 -156.512)" fill="#27292d"/>
    <path id="Path_151" data-name="Path 151" d="M525.537,179.053l-.13.037-.463.12a4.76,4.76,0,0,1-1.122.176c-.714,0-1.14-.352-1.14-.955,0-.389.176-1.047,1.335-1.047h1.511l.009,1.668ZM524.48,172.5a10.21,10.21,0,0,0-3.1.538l-.779.232.26,1.761.76-.25a8.936,8.936,0,0,1,2.53-.426c.334,0,1.353,0,1.353,1.1v.482h-1.418c-2.586,0-3.791.825-3.791,2.6,0,1.511,1.1,2.419,2.966,2.419a9.557,9.557,0,0,0,2.058-.278l.037-.009.037.009.222.037c.732.13,1.474.26,2.206.408v-5.784c.009-1.891-1.122-2.836-3.346-2.836" transform="translate(-472.076 -156.512)" fill="#27292d"/>
    <path id="Path_152" data-name="Path 152" d="M386.394,172.609a6.254,6.254,0,0,0-2.512.556l-.093.046-.083-.065a3.8,3.8,0,0,0-2.252-.547,9.214,9.214,0,0,0-2.66.4c-.788.241-1.094.621-1.094,1.335v6.608h2.465v-6.108l.12-.037a3.137,3.137,0,0,1,1.084-.195.975.975,0,0,1,1.075,1.121v5.227h2.428v-5.329a1.8,1.8,0,0,0-.074-.538l-.083-.158.167-.074a2.923,2.923,0,0,1,1.2-.25.982.982,0,0,1,1.075,1.121v5.227h2.419v-5.468c0-1.937-1.038-2.873-3.188-2.873" transform="translate(-342.693 -156.603)" fill="#27292d"/>
    <path id="Path_153" data-name="Path 153" d="M596.712,6.785a8.409,8.409,0,0,1-1.437-.13l-.139-.028V3.059a1.749,1.749,0,0,0-.065-.51L595,2.4l.157-.065c.037-.019.074-.028.121-.046l.028-.019.167-.056a.238.238,0,0,1,.065-.019,5.753,5.753,0,0,1,1.27-.148h.009c1.511,0,1.687,1.344,1.687,2.354-.009,1.965-.982,2.382-1.789,2.382M596.7,0h-.065c-1.418,0-2.873.389-3.392,1.149A2.319,2.319,0,0,0,592.8,2.53h0V6.21a1.09,1.09,0,0,1-.074.463l-.084.158h-4.477V4.273h-.009c-.056-2.7-1.65-4.18-3.958-4.18h-2.252c-.093.658-.167,1.121-.26,1.78h2.243c1.177,0,1.8,1,1.8,2.54V6.988l-.157-.083a1.7,1.7,0,0,0-.528-.074h-3.874c-.074.491-.167,1.131-.269,1.77h11.91c.408-.083.881-.158,1.288-.222a6.708,6.708,0,0,0,2.493.454,4.067,4.067,0,0,0,4.264-4.4A4.087,4.087,0,0,0,596.7,0" transform="translate(-527.059 0)" fill="#27292d"/>
    <path id="Path_154" data-name="Path 154" d="M391.455,10.684h.111c2.586,0,3.791-.853,3.791-2.957A2.707,2.707,0,0,0,392.4,5.011h-2.382a1.026,1.026,0,0,1-1.14-1.094c0-.463.176-1.038,1.344-1.038h5.209c.111-.677.167-1.1.269-1.78h-5.413c-2.521,0-3.791,1.057-3.791,2.818,0,1.742,1.1,2.651,2.957,2.651h2.382a1.125,1.125,0,0,1,1.14,1.159,1.164,1.164,0,0,1-1.335,1.2h-.4L383.613,8.9h-1.39c-1.177,0-2-.667-2-2.215V5.623c0-1.613.64-2.614,2-2.614h2.261c.1-.686.167-1.121.26-1.77h-3.086c-2.308,0-3.9,1.548-3.958,4.245h0v1.2c.056,2.7,1.65,3.985,3.958,3.985h2.252l4.134.009h3.411Z" transform="translate(-342.693 -0.998)" fill="#27292d"/>
  </g>
</svg>
