<svg xmlns="http://www.w3.org/2000/svg" width="52.857" height="31.714" viewBox="0 0 52.857 31.714">
  <g id="mastercard" transform="translate(0 0)">
    <path id="Path_170" data-name="Path 170" d="M233.314,116.657a15.857,15.857,0,1,1-31.714,0h0a15.857,15.857,0,1,1,31.714,0Z" transform="translate(-180.457 -100.8)" fill="#ffb600"/>
    <path id="Path_171" data-name="Path 171" d="M217.457,100.8a15.9,15.9,0,0,1,15.857,15.857h0a15.857,15.857,0,1,1-31.714,0" transform="translate(-180.457 -100.8)" fill="#f7981d"/>
    <path id="Path_172" data-name="Path 172" d="M352.8,100.8a15.9,15.9,0,0,1,15.857,15.857h0A15.844,15.844,0,0,1,352.8,132.514" transform="translate(-315.8 -100.8)" fill="#ff8500"/>
    <path id="Path_173" data-name="Path 173" d="M15.689,100.8a15.857,15.857,0,0,0,.168,31.714A16.042,16.042,0,0,0,26.512,128.4h0a15.074,15.074,0,0,0,1.594-1.678H24.834a19.358,19.358,0,0,1-1.175-1.594h5.621a10.748,10.748,0,0,0,.923-1.678H22.737a10,10,0,0,1-.671-1.678h8.726a16.659,16.659,0,0,0,.839-5.034,21.657,21.657,0,0,0-.336-3.356H21.562a12.266,12.266,0,0,1,.419-1.678h8.726a10,10,0,0,0-.671-1.678H22.653a16.638,16.638,0,0,1,.923-1.678H29.2a7.979,7.979,0,0,0-1.258-1.678h-3.1a14.3,14.3,0,0,1,1.594-1.594,15.482,15.482,0,0,0-10.655-4.111C15.773,100.8,15.773,100.8,15.689,100.8Z" transform="translate(0 -100.8)" fill="#ff5050"/>
    <path id="Path_174" data-name="Path 174" d="M0,118.089a15.844,15.844,0,0,0,15.857,15.857,16.042,16.042,0,0,0,10.655-4.111h0a15.075,15.075,0,0,0,1.594-1.678H24.834a19.354,19.354,0,0,1-1.175-1.594h5.621a10.748,10.748,0,0,0,.923-1.678H22.737a10,10,0,0,1-.671-1.678h8.726a16.66,16.66,0,0,0,.839-5.034,21.657,21.657,0,0,0-.336-3.356H21.562a12.265,12.265,0,0,1,.419-1.678h8.726a10,10,0,0,0-.671-1.678H22.653a16.639,16.639,0,0,1,.923-1.678H29.2a7.979,7.979,0,0,0-1.258-1.678h-3.1a14.3,14.3,0,0,1,1.594-1.594A15.482,15.482,0,0,0,15.773,102.4h-.084" transform="translate(0 -102.232)" fill="#e52836"/>
    <path id="Path_175" data-name="Path 175" d="M149.768,133.946a16.042,16.042,0,0,0,10.655-4.111h0a15.076,15.076,0,0,0,1.594-1.678h-3.272a19.341,19.341,0,0,1-1.175-1.594h5.621a10.751,10.751,0,0,0,.923-1.678h-7.467a10,10,0,0,1-.671-1.678H164.7a16.66,16.66,0,0,0,.839-5.034,21.658,21.658,0,0,0-.336-3.356h-9.732a12.271,12.271,0,0,1,.42-1.678h8.726a10,10,0,0,0-.671-1.678h-7.383a16.637,16.637,0,0,1,.923-1.678h5.621a7.977,7.977,0,0,0-1.259-1.678h-3.1a14.3,14.3,0,0,1,1.594-1.594,15.482,15.482,0,0,0-10.655-4.111H149.6" transform="translate(-133.911 -102.232)" fill="#cb2026"/>
    <g id="Group_244" data-name="Group 244" transform="translate(1.51 11.746)">
      <path id="Path_176" data-name="Path 176" d="M184.033,227.383l.252-1.426a3.634,3.634,0,0,1-.419.084c-.587,0-.671-.336-.587-.5l.5-2.936h.923l.252-1.594h-.839l.168-1.007h-1.678s-1.007,5.537-1.007,6.209a1.259,1.259,0,0,0,1.342,1.426A2.575,2.575,0,0,0,184.033,227.383Z" transform="translate(-164.065 -219.245)" fill="#fff"/>
      <path id="Path_177" data-name="Path 177" d="M210.4,232.485a2.669,2.669,0,0,0,2.936,2.936,4.356,4.356,0,0,0,1.762-.252l.336-1.594a5.029,5.029,0,0,1-1.762.42c-1.846,0-1.51-1.342-1.51-1.342h3.44a10.878,10.878,0,0,0,.252-1.51,2.273,2.273,0,0,0-2.433-2.433C211.658,228.542,210.4,230.387,210.4,232.485Zm2.936-2.433c.923,0,.755,1.091.755,1.175h-1.846C212.246,231.142,212.414,230.052,213.337,230.052Z" transform="translate(-189.845 -227.031)" fill="#fff"/>
      <path id="Path_178" data-name="Path 178" d="M300.614,220.938l.336-1.846a4.123,4.123,0,0,1-1.426.419c-1.175,0-1.678-.923-1.678-1.93,0-2.014,1.007-3.1,2.181-3.1a2.8,2.8,0,0,1,1.51.5l.252-1.762a5.9,5.9,0,0,0-1.93-.419c-1.93,0-3.859,1.678-3.859,4.866,0,2.1,1.007,3.524,3.02,3.524A7.529,7.529,0,0,0,300.614,220.938Z" transform="translate(-266.467 -212.8)" fill="#fff"/>
      <path id="Path_179" data-name="Path 179" d="M89.588,227.2a5.942,5.942,0,0,0-2.014.336l-.252,1.426a4.959,4.959,0,0,1,1.846-.336c.587,0,1.091.084,1.091.587,0,.336-.084.419-.084.419H89.42c-1.426,0-3.02.587-3.02,2.517,0,1.51,1.007,1.846,1.594,1.846a2.521,2.521,0,0,0,1.762-.755l-.084.671h1.51l.671-4.614A1.988,1.988,0,0,0,89.588,227.2Zm.336,3.775c0,.252-.168,1.594-1.175,1.594a.655.655,0,0,1-.671-.671c0-.419.252-1.007,1.51-1.007A1.323,1.323,0,0,0,89.924,230.975Z" transform="translate(-78.849 -225.69)" fill="#fff"/>
      <path id="Path_180" data-name="Path 180" d="M137.13,233.28a2.15,2.15,0,0,0,2.517-2.181c0-2.1-2.014-1.678-2.014-2.517,0-.419.336-.587.923-.587.252,0,1.175.084,1.175.084l.252-1.51a6.373,6.373,0,0,0-1.594-.168c-1.258,0-2.517.5-2.517,2.181,0,1.93,2.1,1.762,2.1,2.517,0,.5-.587.587-1.007.587a5.486,5.486,0,0,1-1.51-.252l-.252,1.51C135.284,233.112,135.7,233.28,137.13,233.28Z" transform="translate(-122.531 -224.974)" fill="#fff"/>
      <path id="Path_181" data-name="Path 181" d="M431.982,214.4l-.336,2.265a2.326,2.326,0,0,0-1.594-.839c-1.51,0-2.853,1.846-2.853,4.027,0,1.342.671,2.769,2.1,2.769a2.24,2.24,0,0,0,1.594-.671l-.084.587h1.678l1.259-8.054Zm-.755,4.447c0,.923-.419,2.1-1.342,2.1-.587,0-.923-.5-.923-1.342,0-1.342.587-2.181,1.342-2.181C430.892,217.42,431.227,217.84,431.227,218.847Z" transform="translate(-383.908 -214.232)" fill="#fff"/>
      <path id="Path_182" data-name="Path 182" d="M15.994,222.454,17,216.414l.168,6.041h1.175l2.181-6.041-.923,6.041h1.762l1.342-8.054H19.937l-1.678,4.95-.084-4.95H15.742L14.4,222.454Z" transform="translate(-14.4 -214.232)" fill="#fff"/>
      <path id="Path_183" data-name="Path 183" d="M261.846,235.344c.5-2.769.587-5.034,1.762-4.614a6.583,6.583,0,0,1,.587-1.93h-.336c-.755,0-1.342,1.007-1.342,1.007l.168-.923h-1.594L260,235.428h1.846Z" transform="translate(-234.243 -227.122)" fill="#fff"/>
      <path id="Path_184" data-name="Path 184" d="M349.588,227.2a5.941,5.941,0,0,0-2.014.336l-.252,1.426a4.958,4.958,0,0,1,1.846-.336c.587,0,1.091.084,1.091.587,0,.336-.084.419-.084.419h-.755c-1.426,0-3.02.587-3.02,2.517,0,1.51,1.007,1.846,1.594,1.846a2.521,2.521,0,0,0,1.762-.755l-.084.671h1.51l.671-4.614A1.959,1.959,0,0,0,349.588,227.2Zm.419,3.775c0,.252-.168,1.594-1.175,1.594a.655.655,0,0,1-.671-.671c0-.419.252-1.007,1.51-1.007C349.924,230.975,349.924,230.975,350.008,230.975Z" transform="translate(-311.582 -225.69)" fill="#fff"/>
      <path id="Path_185" data-name="Path 185" d="M396.246,235.344c.5-2.769.587-5.034,1.762-4.614a6.585,6.585,0,0,1,.587-1.93h-.336c-.755,0-1.342,1.007-1.342,1.007l.168-.923h-1.594l-1.091,6.544h1.846Z" transform="translate(-354.548 -227.122)" fill="#fff"/>
    </g>
    <g id="Group_245" data-name="Group 245" transform="translate(1.51 11.746)">
      <path id="Path_186" data-name="Path 186" d="M180,226.209a1.259,1.259,0,0,0,1.342,1.426,3.193,3.193,0,0,0,1.258-.252l.252-1.426a3.631,3.631,0,0,1-.419.084c-.587,0-.671-.336-.587-.5l.5-2.936h.923l.252-1.594h-.839l.168-1.007" transform="translate(-162.633 -219.245)" fill="#dce5e5"/>
      <path id="Path_187" data-name="Path 187" d="M218.4,232.485c0,2.349.755,2.936,2.1,2.936a4.356,4.356,0,0,0,1.762-.252l.336-1.594a5.029,5.029,0,0,1-1.762.42c-1.846,0-1.51-1.342-1.51-1.342h3.44a10.879,10.879,0,0,0,.252-1.51,2.273,2.273,0,0,0-2.433-2.433C218.819,228.542,218.4,230.387,218.4,232.485Zm2.1-2.433c.923,0,1.091,1.091,1.091,1.175h-2.181C219.407,231.142,219.575,230.052,220.5,230.052Z" transform="translate(-197.006 -227.031)" fill="#dce5e5"/>
      <path id="Path_188" data-name="Path 188" d="M307.775,220.938l.336-1.846a4.123,4.123,0,0,1-1.426.419c-1.175,0-1.678-.923-1.678-1.93,0-2.014,1.007-3.1,2.181-3.1a2.8,2.8,0,0,1,1.51.5l.252-1.762a5.9,5.9,0,0,0-1.93-.419c-1.93,0-3.02,1.678-3.02,4.866,0,2.1.168,3.524,2.181,3.524A7.53,7.53,0,0,0,307.775,220.938Z" transform="translate(-273.628 -212.8)" fill="#dce5e5"/>
      <path id="Path_189" data-name="Path 189" d="M87.323,230.478a4.959,4.959,0,0,1,1.846-.336c.587,0,1.091.084,1.091.587,0,.336-.084.42-.084.42H89.42c-1.426,0-3.02.587-3.02,2.517,0,1.51,1.007,1.846,1.594,1.846a2.521,2.521,0,0,0,1.762-.755l-.084.671h1.51l.671-4.615c0-1.93-1.678-2.014-2.349-2.014m1.258,3.608A2.747,2.747,0,0,1,88.749,234a.655.655,0,0,1-.671-.671c0-.42.252-1.007,1.51-1.007A6.855,6.855,0,0,0,90.763,232.408Z" transform="translate(-78.849 -227.122)" fill="#dce5e5"/>
      <path id="Path_190" data-name="Path 190" d="M136,233.112a7.1,7.1,0,0,0,1.93.168,2.15,2.15,0,0,0,2.517-2.181c0-2.1-2.014-1.678-2.014-2.517,0-.419.336-.587.923-.587.252,0,1.175.084,1.175.084l.252-1.51a6.372,6.372,0,0,0-1.594-.168c-1.258,0-1.678.5-1.678,2.181,0,1.93,1.258,1.762,1.258,2.517,0,.5-.587.587-1.007.587" transform="translate(-123.247 -224.974)" fill="#dce5e5"/>
      <path id="Path_191" data-name="Path 191" d="M438.756,217.381a2.327,2.327,0,0,0-1.594-.839c-1.51,0-2.014,1.846-2.014,4.027,0,1.342-.168,2.769,1.258,2.769a2.239,2.239,0,0,0,1.594-.671l-.084.587h1.678l1.258-8.054m-2.181,4.363c0,.923-.755,2.1-1.678,2.1-.587,0-.923-.5-.923-1.342,0-1.342.587-2.181,1.342-2.181A1.282,1.282,0,0,1,438.672,219.563Z" transform="translate(-391.017 -214.948)" fill="#dce5e5"/>
      <path id="Path_192" data-name="Path 192" d="M15.994,222.454,17,216.414l.168,6.041h1.175l2.181-6.041-.923,6.041h1.762l1.342-8.054h-2.1l-2.349,4.95-.084-4.95h-.923L14.4,222.454Z" transform="translate(-14.4 -214.232)" fill="#dce5e5"/>
      <path id="Path_193" data-name="Path 193" d="M260.8,235.344h1.762c.5-2.769.587-5.034,1.762-4.614a6.585,6.585,0,0,1,.587-1.93h-.336c-.755,0-1.342,1.007-1.342,1.007l.168-.923" transform="translate(-234.959 -227.122)" fill="#dce5e5"/>
      <path id="Path_194" data-name="Path 194" d="M347.323,230.478a4.959,4.959,0,0,1,1.846-.336c.587,0,1.091.084,1.091.587,0,.336-.084.42-.084.42h-.755c-1.426,0-3.02.587-3.02,2.517,0,1.51,1.007,1.846,1.594,1.846a2.521,2.521,0,0,0,1.762-.755l-.084.671h1.51l.671-4.615c0-1.93-1.678-2.014-2.349-2.014m1.259,3.608A2.747,2.747,0,0,1,348.749,234a.655.655,0,0,1-.671-.671c0-.42.252-1.007,1.51-1.007A7.382,7.382,0,0,0,350.763,232.408Z" transform="translate(-311.582 -227.122)" fill="#dce5e5"/>
      <path id="Path_195" data-name="Path 195" d="M395.2,235.344h1.762c.5-2.769.587-5.034,1.762-4.614a6.588,6.588,0,0,1,.587-1.93h-.336c-.755,0-1.342,1.007-1.342,1.007l.168-.923" transform="translate(-355.264 -227.122)" fill="#dce5e5"/>
    </g>
  </g>
</svg>
