<?xml version="1.0" encoding="utf-8"?>
<!-- Generator: Adobe Illustrator 23.0.3, SVG Export Plug-In . SVG Version: 6.00 Build 0)  -->
<svg version="1.1" id="Layer_1" xmlns="http://www.w3.org/2000/svg" xmlns:xlink="http://www.w3.org/1999/xlink" x="0px" y="0px"
	 viewBox="0 0 24.8 41.4" style="enable-background:new 0 0 24.8 41.4;" xml:space="preserve">
<style type="text/css">
	.st0{fill:#FFFFFF;}
</style>
<g>
	<g>
		<polygon class="st0" points="2.5,32.1 14.5,32.1 14.5,26.3 19.8,26.3 19.8,32.1 20.7,32.1 20.7,16.2 14.8,16.2 14.8,13.8 
			22.9,13.8 22.9,34.2 17.6,34.2 17.6,28.4 16.7,28.4 16.7,34.1 2.5,34.1 		"/>
		<polygon class="st0" points="19.8,17.4 19.8,25.3 8.5,25.3 8.5,23.2 17.7,23.2 17.7,17.4 		"/>
		<path class="st0" d="M11.6,26.5v2.7h-7V10.8h0.9v2.4h2.3V8.8H2.5v22.4h11.3v-4.7C13.8,26.5,11.6,26.5,11.6,26.5z M7.8,31.2
			l-0.6-0.7l-0.7,0.7l-0.8-0.8l0.8-0.8l0.6,0.7l0.7-0.7l0.8,0.8L7.8,31.2z"/>
		<path class="st0" d="M16.8,22.3v-5.2h-9v-0.9h6V14H5.6v5.3h8.9v1H5.7v7.8h4.9V26H7.8v-3.7H16.8z M7.4,17.8l-0.8,0.7l-0.7-0.8
			l0.7-0.6l-0.7-0.7l0.8-0.7l0.7,0.8L6.8,17L7.4,17.8z"/>
		<path class="st0" d="M20.8,2.5v8.3h-1v-2h-2.1V11h-1V8.8h-2.2v2.1h-0.9V8.7h-1.9v2.2h-1.1V7.6h9.4V2.5h-2.4v2.9h-7V4.6h6.1V2.4
			H8.3v3.2H4.7V4.7h2.9V2.6h-5v5.3h5.7v5.2h14.5l0-10.6L20.8,2.5z M14.5,5.9l0.6,0.7l0.7-0.7l0.6,0.6l0.7-0.6l0.8,0.8L17,7.5
			l-0.6-0.6l-0.7,0.6l-0.6-0.7l-0.7,0.7l-0.8-0.8L14.5,5.9z M4.5,7.8L3.8,7l0.8-0.7l0.7,0.8L4.5,7.8z"/>
	</g>
	<g>
		<path class="st0" d="M1.5,38.2C1.5,38.1,1.5,38.1,1.5,38.2c0-0.1,0-0.2,0-0.2c0,0,0-0.1,0-0.1c0,0,0-0.1,0-0.1
			c0-0.1,0-0.1,0.1-0.1h0.2c0,0,0.1,0,0.1,0.1c0,0.1,0,0.1,0,0.2c0,0.1,0,0.1,0,0.2c0,0.1,0,0.3,0,0.4c0,0.1,0.1,0.2,0.1,0.3
			s0.2,0.2,0.3,0.2S2.5,39,2.7,39c0.1,0,0.2,0,0.2,0c0.1,0,0.1,0,0.2,0c0-0.1,0-0.1,0-0.2c0-0.1,0-0.1,0-0.2c0,0,0-0.1,0-0.1
			s0-0.1,0-0.2v-0.4c0-0.3,0.1-0.5,0.2-0.6c0.2-0.1,0.4-0.2,0.7-0.2c0.1,0,0.2,0,0.3,0c0.1,0,0.2,0,0.2,0c0,0,0,0,0,0c0,0,0,0,0,0
			v1.4c0,0,0,0,0,0.1c0,0,0,0-0.1,0H4.4c0,0,0,0-0.1,0c0,0,0,0,0-0.1v-1.2c-0.1,0-0.1,0-0.1,0c0,0-0.1,0-0.1,0c-0.1,0-0.2,0-0.2,0
			c-0.1,0-0.1,0-0.2,0.1s-0.1,0.1-0.1,0.2c0,0.1,0,0.1,0,0.3v0.7c0,0,0,0.1,0,0.1c0,0,0,0.1,0,0.1c0,0.1,0,0.1,0,0.1
			c0,0,0,0.1,0,0.1c0,0,0,0,0,0.1c0,0,0,0-0.1,0c-0.1,0-0.2,0-0.3,0c-0.1,0-0.2,0-0.4,0c-0.2,0-0.4,0-0.6-0.1
			c-0.2-0.1-0.3-0.1-0.4-0.2c-0.1-0.1-0.2-0.2-0.2-0.4C1.5,38.5,1.5,38.3,1.5,38.2z M2,39.8C2,39.7,2,39.7,2,39.8
			C2,39.7,2.1,39.7,2,39.8l0.2-0.1c0,0,0,0,0.1,0c0,0,0,0,0,0.1V40c0,0,0,0,0,0.1c0,0,0,0-0.1,0H2.1c0,0,0,0-0.1,0c0,0,0,0,0-0.1
			V39.8z M2.6,39.8C2.6,39.7,2.6,39.7,2.6,39.8C2.7,39.7,2.7,39.7,2.6,39.8l0.2-0.1c0,0,0,0,0.1,0c0,0,0,0,0,0.1V40c0,0,0,0,0,0.1
			c0,0,0,0-0.1,0H2.7c0,0,0,0-0.1,0c0,0,0,0,0-0.1V39.8z"/>
		<path class="st0" d="M5.1,38.4C5.1,38.4,5.1,38.4,5.1,38.4C5.2,38.4,5.2,38.4,5.1,38.4l1.2-0.1l0-0.5c0-0.2-0.1-0.4-0.2-0.5
			c-0.1-0.1-0.3-0.2-0.5-0.2c0,0-0.1,0-0.1,0c-0.1,0-0.1,0-0.1,0c-0.1,0-0.1,0-0.1-0.1V37c0,0,0,0,0-0.1c0,0,0,0,0.1,0
			c0.1,0,0.1,0,0.2,0c0.1,0,0.1,0,0.1,0c0.2,0,0.3,0,0.5,0.1c0.1,0,0.2,0.1,0.3,0.2c0.1,0.1,0.1,0.2,0.2,0.3c0,0.1,0.1,0.3,0.1,0.4
			c0,0,0,0,0,0.1c0,0,0,0.1,0,0.1c0,0.1,0,0.1,0,0.1c0,0,0,0.1,0,0.1c0,0,0,0,0,0.1s0,0.1,0,0.1c0,0,0,0.1,0,0.1c0,0,0,0.1,0,0.1
			c0,0.1,0,0.1-0.1,0.1H5.2c0,0,0,0-0.1,0c0,0,0,0,0,0V38.4z"/>
		<path class="st0" d="M7.2,35.8C7.2,35.8,7.2,35.7,7.2,35.8C7.3,35.7,7.3,35.7,7.2,35.8l0.3-0.1c0,0,0,0,0.1,0c0,0,0,0,0,0.1v2.3
			c0,0.1,0,0.1,0,0.1c0,0,0,0.1,0.1,0.1c0,0,0.1,0,0.1,0c0,0,0.1,0,0.1,0h0.1v0.3H7.7c-0.1,0-0.2,0-0.2,0c-0.1,0-0.1,0-0.2-0.1
			c0,0-0.1-0.1-0.1-0.2c0-0.1,0-0.1,0-0.2V35.8z"/>
		<path class="st0" d="M7.8,38.4C7.8,38.4,7.8,38.4,7.8,38.4c0.1,0,0.1-0.1,0.1-0.1h0.3c0.1,0,0.1,0,0.1,0c0,0,0-0.1,0-0.1
			c0-0.1,0-0.2,0-0.3c0-0.1,0-0.2,0-0.2c0-0.1,0-0.2,0-0.3c0-0.1,0-0.2,0-0.3c0,0,0,0,0-0.1c0,0,0,0,0.1,0h0.2c0,0,0,0,0.1,0
			c0,0,0,0,0,0.1c0,0.1,0,0.2,0,0.2c0,0.1,0,0.1,0,0.2c0,0.1,0,0.1,0,0.2s0,0.1,0,0.2c0,0.1,0,0.2,0,0.4c0,0.1,0,0.2,0,0.3
			c0,0,0,0,0,0.1c0,0,0,0-0.1,0c0,0-0.1,0-0.1,0c0,0-0.1,0-0.1,0c0,0-0.1,0-0.1,0c-0.1,0-0.1,0-0.1,0H7.9c0,0-0.1,0-0.1,0
			c0,0,0,0,0,0V38.4z M7.8,39.2C7.8,39.1,7.8,39.1,7.8,39.2C7.9,39.1,7.9,39.1,7.8,39.2L8,39.1c0,0,0,0,0.1,0c0,0,0,0,0,0.1v0.2
			c0,0,0,0,0,0.1c0,0,0,0-0.1,0H7.9c0,0,0,0-0.1,0c0,0,0,0,0-0.1V39.2z M8.4,39.2C8.4,39.1,8.4,39.1,8.4,39.2
			C8.5,39.1,8.5,39.1,8.4,39.2l0.2-0.1c0,0,0,0,0.1,0c0,0,0,0,0,0.1v0.2c0,0,0,0,0,0.1c0,0,0,0-0.1,0H8.5c0,0,0,0-0.1,0
			c0,0,0,0,0-0.1V39.2z"/>
		<path class="st0" d="M9,39.4C9,39.3,9.1,39.3,9,39.4l0.1-0.1c0.1,0,0.1,0,0.2,0c0,0,0.1,0,0.1,0c0,0,0,0,0.1-0.1s0-0.1,0-0.2v-1.9
			c0,0,0,0,0-0.1c0,0,0,0,0.1,0h0.2c0,0,0,0,0.1,0c0,0,0,0,0,0.1v1.2h0.4v0.3H9.8V39c0,0.1,0,0.2,0,0.2c0,0.1,0,0.1-0.1,0.2
			c-0.1,0.1-0.1,0.2-0.2,0.2c-0.1,0-0.2,0-0.3,0c0,0,0,0-0.1,0c0,0,0,0-0.1,0c0,0-0.1,0-0.1-0.1V39.4z"/>
		<path class="st0" d="M10,38.4C10,38.4,10.1,38.4,10,38.4c0.1,0,0.1-0.1,0.1-0.1h0.3c0.1,0,0.1,0,0.1,0c0,0,0-0.1,0-0.1v-2.4
			c0,0,0,0,0-0.1c0,0,0,0,0.1,0h0.2c0,0,0,0,0.1,0c0,0,0,0,0,0.1v2.3c0,0,0,0.1,0,0.1c0,0,0,0.1,0,0.1c0,0,0,0.1,0,0.1
			c0,0,0,0.1,0,0.1c0,0,0,0,0,0.1c0,0,0,0-0.1,0c0,0-0.1,0-0.1,0c0,0-0.1,0-0.1,0c0,0-0.1,0-0.1,0c-0.1,0-0.1,0-0.1,0h-0.2
			c0,0-0.1,0-0.1,0c0,0,0,0,0,0V38.4z"/>
		<path class="st0" d="M11.7,35.8C11.7,35.8,11.7,35.7,11.7,35.8C11.7,35.7,11.7,35.7,11.7,35.8l0.3-0.1c0,0,0,0,0.1,0
			c0,0,0,0,0,0.1v2.8c0,0,0,0,0,0.1c0,0,0,0-0.1,0h-0.2c0,0,0,0-0.1,0c0,0,0,0,0-0.1V35.8z"/>
		<path class="st0" d="M16.1,38.4c0.1,0,0.1,0,0.1,0c0,0,0-0.1,0-0.1c0-0.1,0-0.2,0-0.3c0-0.1,0-0.2,0-0.2c0-0.1,0-0.2,0-0.3
			c0-0.1,0-0.2,0-0.3c0,0,0,0,0-0.1c0,0,0,0,0.1,0h0.2c0,0,0,0,0.1,0c0,0,0,0,0,0.1c0,0.1,0,0.2,0,0.2c0,0.1,0,0.1,0,0.2
			c0,0.1,0,0.1,0,0.2s0,0.1,0,0.2c0,0.1,0,0.2,0,0.4c0,0.1,0,0.2,0,0.3c0,0,0,0,0,0.1c0,0,0,0-0.1,0c0,0-0.1,0-0.1,0
			c0,0-0.1,0-0.2,0c-0.1,0-0.1,0-0.2,0c-0.1,0-0.2,0-0.2,0h-0.9c-0.3,0-0.5,0-0.6-0.1c-0.2,0-0.3-0.1-0.4-0.2
			c-0.1-0.1-0.2-0.2-0.2-0.3c0-0.1-0.1-0.3-0.1-0.4c0-0.1,0-0.1,0-0.2c0-0.1,0-0.1,0-0.2c0-0.1,0-0.1,0.1-0.1h0.2c0,0,0.1,0,0.1,0.1
			c0,0.1,0,0.1,0,0.2c0,0,0,0.1,0,0.1c0,0.1,0,0.2,0,0.3s0.1,0.2,0.1,0.3c0.1,0.1,0.2,0.1,0.3,0.2c0.1,0,0.3,0.1,0.5,0.1H16.1z
			 M14.9,39.2C14.9,39.1,14.9,39.1,14.9,39.2C15,39.1,15,39.1,14.9,39.2l0.3-0.1c0,0,0,0,0.1,0c0,0,0,0,0,0.1v0.2c0,0,0,0,0,0.1
			c0,0,0,0-0.1,0H15c0,0,0,0-0.1,0c0,0,0,0,0-0.1V39.2z"/>
		<path class="st0" d="M17.3,35.8C17.3,35.8,17.3,35.7,17.3,35.8C17.3,35.7,17.3,35.7,17.3,35.8l0.3-0.1c0,0,0,0,0.1,0
			c0,0,0,0,0,0.1v2.3c0,0.1,0,0.1,0,0.1c0,0,0,0.1,0.1,0.1c0,0,0.1,0,0.1,0c0,0,0.1,0,0.1,0H18v0.3h-0.2c-0.1,0-0.2,0-0.2,0
			c-0.1,0-0.1,0-0.2-0.1c0,0-0.1-0.1-0.1-0.2c0-0.1,0-0.1,0-0.2V35.8z"/>
		<path class="st0" d="M17.8,38.4C17.8,38.4,17.8,38.4,17.8,38.4c0.1,0,0.1-0.1,0.1-0.1h0.2c0,0,0.1,0,0.1,0c0,0,0.1,0,0.1,0
			c0,0,0.1,0,0.1,0c0,0,0,0,0-0.1v-0.9c0,0,0,0,0-0.1c0,0,0,0,0.1,0h0.2c0,0,0,0,0.1,0c0,0,0,0,0,0.1v0.9c0,0,0,0,0,0
			c0,0,0.1,0,0.1,0s0.1,0,0.1,0c0,0,0.1,0,0.1,0h0.1c0,0,0.1,0,0.1,0c0,0,0.1,0,0.1,0c0,0,0,0,0.1,0c0,0,0,0,0-0.1v-1c0,0,0,0,0-0.1
			c0,0,0,0,0.1,0h0.2c0,0,0,0,0.1,0c0,0,0,0,0,0.1v1.1c0,0,0.1,0.1,0.1,0.1c0.1,0,0.1,0,0.2,0h0.1c0,0,0.1,0,0.1,0c0,0,0.1,0,0.1,0
			c0,0,0.1,0,0.1,0c0,0,0,0,0-0.1v-1.2c0,0,0,0,0-0.1c0,0,0,0,0.1,0h0.2c0,0,0,0,0.1,0c0,0,0,0,0,0.1v1.2c0,0,0,0,0.1,0
			c0,0,0.1,0,0.1,0c0,0,0.1,0,0.1,0c0,0,0.1,0,0.1,0h0.1v0.3H21c-0.1,0-0.2,0-0.2,0c-0.1,0-0.2-0.1-0.2-0.1
			c-0.1,0.1-0.1,0.1-0.2,0.1c-0.1,0-0.2,0-0.2,0H20c-0.1,0-0.2,0-0.2,0c-0.1,0-0.1-0.1-0.2-0.1c-0.1,0.1-0.3,0.1-0.5,0.1H19
			c-0.1,0-0.1,0-0.2,0c-0.1,0-0.2-0.1-0.2-0.1c0,0-0.1,0.1-0.1,0.1c0,0-0.1,0-0.1,0c0,0-0.1,0-0.1,0c0,0-0.1,0-0.1,0H18
			c0,0-0.1,0-0.1,0c0,0,0,0,0,0V38.4z M19,36.4C19,36.4,19,36.3,19,36.4C19.1,36.3,19.1,36.3,19,36.4l0.2-0.1c0,0,0,0,0.1,0
			c0,0,0,0,0,0.1v0.2c0,0,0,0,0,0.1c0,0,0,0-0.1,0h-0.2c0,0,0,0-0.1,0c0,0,0,0,0-0.1V36.4z M19.3,35.9
			C19.3,35.9,19.4,35.9,19.3,35.9C19.4,35.8,19.4,35.8,19.3,35.9l0.2-0.1c0,0,0,0,0.1,0c0,0,0,0,0,0.1v0.2c0,0,0,0,0,0.1
			c0,0,0,0-0.1,0h-0.1c0,0,0,0-0.1,0c0,0,0,0,0-0.1V35.9z M19.7,36.4C19.7,36.4,19.7,36.3,19.7,36.4C19.7,36.3,19.7,36.3,19.7,36.4
			l0.3-0.1c0,0,0,0,0.1,0c0,0,0,0,0,0.1v0.2c0,0,0,0,0,0.1c0,0,0,0-0.1,0h-0.2c0,0,0,0-0.1,0c0,0,0,0,0-0.1V36.4z"/>
		<path class="st0" d="M20.9,38.4C20.9,38.4,20.9,38.4,20.9,38.4c0.1,0,0.1-0.1,0.1-0.1h0.3c0.1,0,0.1,0,0.1,0c0,0,0-0.1,0-0.1v-2.4
			c0,0,0,0,0-0.1c0,0,0,0,0.1,0h0.2c0,0,0,0,0.1,0c0,0,0,0,0,0.1v2.3c0,0,0,0.1,0,0.1c0,0,0,0.1,0,0.1c0,0,0,0.1,0,0.1
			c0,0,0,0.1,0,0.1c0,0,0,0,0,0.1c0,0,0,0-0.1,0c0,0-0.1,0-0.1,0c0,0-0.1,0-0.1,0c0,0-0.1,0-0.1,0c-0.1,0-0.1,0-0.1,0h-0.2
			c0,0-0.1,0-0.1,0c0,0,0,0,0,0V38.4z"/>
		<path class="st0" d="M22.6,35.8C22.6,35.8,22.6,35.7,22.6,35.8C22.6,35.7,22.6,35.7,22.6,35.8l0.3-0.1c0,0,0,0,0.1,0
			c0,0,0,0,0,0.1v2.8c0,0,0,0,0,0.1c0,0,0,0-0.1,0h-0.2c0,0,0,0-0.1,0c0,0,0,0,0-0.1V35.8z"/>
	</g>
</g>
</svg>
